<?xml version='1.0' encoding='iso-8859-1'?>
<!DOCTYPE svg PUBLIC '-//W3C//DTD SVG 1.1//EN' 'http://www.w3.org/Graphics/SVG/1.1/DTD/svg11.dtd'>
<!-- Uploaded to: SVG Repo, www.svgrepo.com, Generator: SVG Repo Mixer Tools -->
<svg fill="#000000" height="800px" width="800px" version="1.1" xmlns="http://www.w3.org/2000/svg" viewBox="0 0 254.408 254.408" xmlns:xlink="http://www.w3.org/1999/xlink" enable-background="new 0 0 254.408 254.408">
  <g>
    <path d="m236.961,44.858h-219.514c-9.62,0-17.447,7.827-17.447,17.448v63.946c0,15.997 13.015,29.012 29.012,29.012h196.385c15.997,0 29.012-13.015 29.012-29.012v-63.946c-0.001-9.621-7.827-17.448-17.448-17.448zm-199.137,14h178.76v16.482c0,6.48-5.272,11.753-11.752,11.753h-155.255c-6.48,0-11.752-5.272-11.752-11.753v-16.482zm202.583,67.394c0,8.277-6.734,15.012-15.012,15.012h-196.384c-8.277,0-15.012-6.734-15.012-15.012v-63.946c0-1.901 1.546-3.448 3.447-3.448h6.377v16.482c0,14.2 11.553,25.753 25.752,25.753h155.255c14.2,0 25.752-11.553 25.752-25.753v-16.482h6.377c1.901,0 3.447,1.547 3.447,3.448v63.946z"/>
    <path d="m223.584,119.248h-192.76c-3.866,0-7,3.134-7,7s3.134,7 7,7h192.76c3.866,0 7-3.134 7-7s-3.134-7-7-7z"/>
    <path d="m84.187,177.358c-0.234-0.131-0.452-0.258-0.655-0.38 3.296-1.417 5.021-5.144 3.878-8.616-1.209-3.672-5.165-5.67-8.837-4.461-1.739,0.572-10.453,3.821-11.208,11.591-0.518,5.334 2.836,10.069 9.969,14.074 2.307,1.295 2.858,2.267 2.871,2.438 0.072,0.973-1.828,3.536-3.662,4.959-3.085,2.33-3.698,6.719-1.369,9.804 1.376,1.823 3.471,2.783 5.592,2.783 1.469,0 2.95-0.461 4.212-1.414 1.008-0.761 9.828-7.705 9.194-17.076-0.26-3.84-2.204-9.334-9.985-13.702z"/>
    <path d="m130.631,177.358c-0.234-0.131-0.452-0.258-0.655-0.38 3.296-1.417 5.021-5.144 3.878-8.616-1.209-3.672-5.163-5.67-8.837-4.461-1.739,0.572-10.453,3.821-11.208,11.591-0.518,5.334 2.836,10.069 9.969,14.074 2.307,1.295 2.858,2.267 2.871,2.438 0.072,0.973-1.828,3.536-3.662,4.959-3.085,2.33-3.698,6.719-1.369,9.804 1.376,1.823 3.471,2.783 5.592,2.783 1.469,0 2.95-0.461 4.212-1.414 1.008-0.761 9.828-7.705 9.194-17.076-0.26-3.84-2.203-9.334-9.985-13.702z"/>
    <path d="m177.075,177.358c-0.234-0.131-0.452-0.258-0.655-0.38 3.296-1.417 5.021-5.144 3.878-8.616-1.209-3.672-5.164-5.67-8.837-4.461-1.739,0.572-10.453,3.821-11.208,11.591-0.518,5.334 2.836,10.069 9.969,14.074 2.307,1.295 2.858,2.267 2.871,2.438 0.072,0.973-1.828,3.536-3.662,4.959-3.085,2.33-3.698,6.719-1.369,9.804 1.376,1.823 3.471,2.783 5.592,2.783 1.469,0 2.95-0.461 4.212-1.414 1.008-0.761 9.828-7.705 9.194-17.076-0.26-3.84-2.203-9.334-9.985-13.702z"/>
  </g>
</svg>