<?xml version="1.0" encoding="iso-8859-1"?>
<!-- Uploaded to: SVG Repo, www.svgrepo.com, Generator: SVG Repo Mixer Tools -->
<svg height="800px" width="800px" version="1.1" id="Capa_1" xmlns="http://www.w3.org/2000/svg" xmlns:xlink="http://www.w3.org/1999/xlink" 
	 viewBox="0 0 500.02 500.02" xml:space="preserve">
<g>
	<g>
		<path style="fill:#010002;" d="M57.96,223.661c17.062,35.254,45.357,63.874,80.749,83.058L84.403,433.395
			c-2.65,6.186,0.211,13.355,6.405,16.005c1.561,0.675,3.195,0.992,4.796,0.992c4.731,0,9.234-2.772,11.217-7.397l53.99-125.928
			c26.475,10.632,55.933,16.469,87.008,16.469c31.905,0,62.119-6.121,89.13-17.298l54.356,126.765
			c1.983,4.617,6.487,7.389,11.217,7.389c1.601,0,3.227-0.317,4.796-0.992c6.194-2.65,9.055-9.819,6.405-16.013l-54.795-127.797
			c34.595-19.248,62.241-47.585,78.953-82.359c32.628-6.657,61.509-21.272,62.119-38.554c0.675-19.313-15.851-30.035-44.577-34.53
			c0.057-1.902,0.154-3.788,0.154-5.714c0-1.585-0.211-3.154-0.528-4.715c2.601-4.82,4.048-9.876,4.048-15.192
			c0-46.886-107.419-74.897-211.27-74.897S36.533,77.664,36.533,124.541c0,5.316,1.447,10.38,4.048,15.2
			c-0.301,1.561-0.52,3.121-0.52,4.706c0,1.772,0.089,3.512,0.138,5.267c-28.507,4.219-40.87,15.022-40.171,34.977
			C0.646,202.364,26.747,217.232,57.96,223.661z M48.734,124.525c0.033-30.271,80.018-62.688,199.077-62.688
			s199.036,32.409,199.077,62.679c0,0.008,0,0.016,0,0.024c0,7.844-5.414,15.834-15.444,23.37c-0.788,0.593-1.577,1.187-2.422,1.772
			c-29.913,20.736-95.413,37.57-181.21,37.57c-119.084,0-199.077-32.425-199.077-62.704
			C48.726,124.533,48.734,124.533,48.734,124.525z M475.029,187.489c-0.406,7.828-12.648,13.128-29.206,16.412
			c3.755-10.99,6.446-22.508,8.039-34.473C469.494,172.346,475.566,177.239,475.029,187.489z M41.719,169.062
			c1.585,12.095,4.292,23.735,8.08,34.831c-14.428-3.284-24.402-8.584-24.808-16.403C24.43,176.792,26.812,171.923,41.719,169.062z"
			/>
		<path style="fill:#010002;" d="M250.526,169.988c61.834,0,178.772-10.014,178.772-47.934c0-5.861-2.999-11.234-8.356-16.111
			c-24.524-22.345-99.282-34.238-170.416-34.238c-64.11,0-131.163,9.665-161.742,27.93c-10.754,6.43-17.037,13.908-17.037,22.419
			C71.746,159.974,188.684,169.988,250.526,169.988z M376.007,140.685l0.61-37.993c23.37,6.609,36.424,14.079,36.424,19.37
			C413.041,127.102,400.263,134.369,376.007,140.685z M182.384,150.447c-13.136-1.349-24.873-3.056-35.351-4.967l0.772-48.316
			c10.567-2.097,22.28-3.991,35.245-5.487L182.384,150.447z M207.469,89.483c11.144-0.78,22.923-1.268,35.319-1.414l-0.723,65.557
			c-12.485-0.138-24.264-0.561-35.311-1.236L207.469,89.483z M294.339,152.39c-8.844,0.545-18.102,0.943-27.881,1.146l0.715-65.337
			c9.738,0.252,18.996,0.748,27.922,1.398L294.339,152.39z M319.457,91.865c12.006,1.422,22.939,3.17,32.856,5.113l-0.78,48.95
			c-9.827,1.723-20.72,3.268-32.783,4.511L319.457,91.865z M123.322,102.984l-0.593,37.099
			c-22.776-6.17-34.733-13.136-34.733-18.021C88.004,116.844,100.627,109.52,123.322,102.984z"/>
	</g>
</g>
</svg>